<svg id="efcb3988-7ae5-48f4-9087-49e8cfcc8ba1" data-name="Capa 5 copia 2" xmlns="http://www.w3.org/2000/svg" xmlns:xlink="http://www.w3.org/1999/xlink" viewBox="0 0 690 690"><defs><style>.b594973e-2577-4f78-b2ef-cdcac81e58db{fill:url(#bc165e9a-2722-40e7-8496-8b5a5beb1344);}.e8218d64-6c4f-44c9-9068-2286fbe0be15{fill:url(#b0078e64-0d31-458f-a191-511aebfa9e69);}.eff46fd9-fc4c-4267-a965-032ac544aeaf{fill:url(#bf21277a-4718-4f5b-9f72-9602f899e181);}.b3616e0e-06df-4714-afad-44f6daae8279{fill:url(#f6290a5f-406a-40d8-93d1-2daed13ea2bf);}.b07c239e-7670-47d8-a2c2-6087d9048ad0{fill:url(#ffb755c3-1686-4570-a9e3-83752298bb80);}.b97415b5-e278-46fb-a78c-7e7e2777fb44{fill:url(#ff1e6428-7734-452e-a215-2335ec6794f7);}.ba8fc8e8-72e6-4a77-8b8e-1182b9633ce8{opacity:0.66;}.e3a1f6df-8079-4737-9b8c-7ba1b35dbe79{fill:url(#e018f9a0-b6ab-49e5-b009-9f5baa5c94dc);}.ae36e2de-c0f3-4654-9319-86dc24efe7f1{fill:url(#f5e35eb3-ceec-46f2-8e6d-090efd47d1fa);}.bb19a6e4-ffed-4e45-a1e6-f48415feaa8b{fill:url(#afe82cf2-8477-4183-93a4-1a48d23341a6);}.a843cddb-5585-4ba5-80e5-a42fdb2b7d21{fill:url(#f594b3c4-858e-41ba-8f10-e71aac6f5c91);}.e74554b7-4f8e-451f-9c20-77b832ee3183{fill:url(#f90672cb-9557-4a29-a73a-246be322e6a7);}.fd6e0e08-4cfb-4ec6-bab1-0fbeaf6326d1{fill:url(#e16827aa-2899-40dd-a2d8-b1dca5d97289);}.ac6d6b34-8575-4ac8-a1ab-f4de6c233287{fill:url(#e016b1f0-c9be-4e96-b1a9-b1f7e7d6090e);}.e1c3678f-7fe8-4869-9594-ab0ddd607765{fill:url(#ed1753a6-8a8f-4fd6-a4ef-8711eae758cd);}.f84de23f-4bff-4f52-9cf0-bf1738519df3{fill:url(#ac400e14-e53f-4dae-a627-2e97444e9c7b);}.b624eb8c-3350-4fd8-947d-e1c04f8cba45{fill:url(#b71ea018-536e-427e-b043-3f55215cb2c8);}.ffd1aa06-abb8-4fb2-8ed3-322faf8e92dd{fill:url(#e23aea2c-59c2-488d-a178-5e69852b1450);}.a57c6daf-40b4-4f4d-83f5-deeb1c9c75bb{fill:url(#abac06e8-25ba-48db-bee0-8b4b72deb82b);}.ae8289d0-205f-494a-b614-b7489a415c46{fill:url(#b51fb573-70b5-4fc5-a340-8ba10effb01d);}.a899ff64-07a0-4641-8a1c-ec232544a2bb{fill:url(#aa4582e3-47c4-46ee-850e-7497128d4821);}.a0f73c77-458e-43f8-9eea-b4c3e05e02c5{fill:url(#abcc3d52-d566-4f0c-b192-96a2df820810);}.e49cfcba-37ae-4d03-9230-0212627f402a{fill:url(#b81e1ce8-491a-4f79-9055-a09dfdf48d78);}.ed528378-4404-4351-b835-f93690002a32{fill:url(#b38e6d60-86d4-438c-a39e-a531b86bf17a);}.ae21cfbb-5d5c-4ca6-8064-55c4a6ac0c99{fill:url(#bff3c81a-56fa-4ba8-8f74-d00290e40a82);}.b6ceaf33-5d8b-4443-ae53-14b80c20d46d{opacity:0.85;fill:url(#bd37f680-4e9f-4b25-9c42-9a0daa593911);}.b1f077c1-79c4-4ac2-997b-c4be7128a769{fill:url(#a240219d-e31e-41a8-931e-301106df769a);}.f78eaf7e-d0d3-42c6-8cf7-882b6be2b138{fill:url(#b1d1a6b2-776b-46f9-8468-f67f7c412b21);}.a57dc85d-da04-4a16-9b6a-fcf782886ab8{fill:url(#a9a33be4-ca3f-441c-ab5b-5f3b503d4d6e);}.e0cdd9be-f54f-4148-89ec-bea59ae68202{fill:url(#bfda28dd-46df-4bdf-8705-015c0eeb7574);}.a51da5f8-dbe7-4ec4-9801-09be74e3740c{fill:url(#bcb2716a-a78a-4c27-900f-57270021e82c);}.a534d13c-6abe-4a5d-a5e1-9f8d5bbdc79b{fill:url(#bee1af4a-7989-4f6c-b315-313cbf380f50);}.a7a1b9cc-72de-4ef4-93a5-e1e34e953f8f{fill:#fefefe;}.a9c7e808-fe80-490e-a6ea-93f87e26e6fe{fill:#00baff;}</style><linearGradient id="bc165e9a-2722-40e7-8496-8b5a5beb1344" x1="414.58" y1="177.68" x2="-377.7" y2="177.68" gradientUnits="userSpaceOnUse"><stop offset="0" stop-color="#303030"/><stop offset="0.08" stop-color="#2d2d2d"/><stop offset="0.62" stop-color="#191919"/><stop offset="1" stop-color="#121212"/></linearGradient><linearGradient id="b0078e64-0d31-458f-a191-511aebfa9e69" x1="344.04" y1="344.93" x2="-426.96" y2="344.93" xlink:href="#bc165e9a-2722-40e7-8496-8b5a5beb1344"/><linearGradient id="bf21277a-4718-4f5b-9f72-9602f899e181" x1="392.61" y1="512.01" x2="-402.32" y2="512.01" xlink:href="#bc165e9a-2722-40e7-8496-8b5a5beb1344"/><linearGradient id="f6290a5f-406a-40d8-93d1-2daed13ea2bf" x1="881.75" y1="512.19" x2="89.47" y2="512.19" xlink:href="#bc165e9a-2722-40e7-8496-8b5a5beb1344"/><linearGradient id="ffb755c3-1686-4570-a9e3-83752298bb80" x1="936.12" y1="344.93" x2="165.12" y2="344.93" xlink:href="#bc165e9a-2722-40e7-8496-8b5a5beb1344"/><linearGradient id="ff1e6428-7734-452e-a215-2335ec6794f7" x1="872.35" y1="177.71" x2="174.05" y2="177.71" xlink:href="#bc165e9a-2722-40e7-8496-8b5a5beb1344"/><radialGradient id="e018f9a0-b6ab-49e5-b009-9f5baa5c94dc" cx="222.16" cy="177.68" r="168.33" gradientUnits="userSpaceOnUse"><stop offset="0.03" stop-color="#303030"/><stop offset="1" stop-color="#121212"/></radialGradient><radialGradient id="f5e35eb3-ceec-46f2-8e6d-090efd47d1fa" cx="196.79" cy="344.93" r="160.48" xlink:href="#e018f9a0-b6ab-49e5-b009-9f5baa5c94dc"/><radialGradient id="afe82cf2-8477-4183-93a4-1a48d23341a6" cx="221.68" cy="512.01" r="168.46" xlink:href="#e018f9a0-b6ab-49e5-b009-9f5baa5c94dc"/><radialGradient id="f594b3c4-858e-41ba-8f10-e71aac6f5c91" cx="467.39" cy="512.19" r="168.33" xlink:href="#e018f9a0-b6ab-49e5-b009-9f5baa5c94dc"/><radialGradient id="f90672cb-9557-4a29-a73a-246be322e6a7" cx="492.82" cy="344.93" r="160.48" xlink:href="#e018f9a0-b6ab-49e5-b009-9f5baa5c94dc"/><radialGradient id="e16827aa-2899-40dd-a2d8-b1dca5d97289" cx="488.04" cy="177.71" r="158.43" xlink:href="#e018f9a0-b6ab-49e5-b009-9f5baa5c94dc"/><linearGradient id="e016b1f0-c9be-4e96-b1a9-b1f7e7d6090e" x1="402.38" y1="206.91" x2="-251.4" y2="206.91" gradientTransform="translate(689.6 689.7) rotate(180)" xlink:href="#bc165e9a-2722-40e7-8496-8b5a5beb1344"/><linearGradient id="ed1753a6-8a8f-4fd6-a4ef-8711eae758cd" x1="344.17" y1="344.92" x2="-292.04" y2="344.92" gradientTransform="translate(689.6 689.7) rotate(180)" xlink:href="#bc165e9a-2722-40e7-8496-8b5a5beb1344"/><linearGradient id="ac400e14-e53f-4dae-a627-2e97444e9c7b" x1="384.25" y1="482.79" x2="-271.71" y2="482.79" gradientTransform="translate(689.6 689.7) rotate(180)" xlink:href="#bc165e9a-2722-40e7-8496-8b5a5beb1344"/><linearGradient id="b71ea018-536e-427e-b043-3f55215cb2c8" x1="787.88" y1="482.93" x2="134.11" y2="482.93" gradientTransform="translate(689.6 689.7) rotate(180)" xlink:href="#bc165e9a-2722-40e7-8496-8b5a5beb1344"/><linearGradient id="e23aea2c-59c2-488d-a178-5e69852b1450" x1="832.75" y1="344.92" x2="196.53" y2="344.92" gradientTransform="translate(689.6 689.7) rotate(180)" xlink:href="#bc165e9a-2722-40e7-8496-8b5a5beb1344"/><linearGradient id="abac06e8-25ba-48db-bee0-8b4b72deb82b" x1="780.13" y1="206.93" x2="203.9" y2="206.93" gradientTransform="translate(689.6 689.7) rotate(180)" xlink:href="#bc165e9a-2722-40e7-8496-8b5a5beb1344"/><radialGradient id="b51fb573-70b5-4fc5-a340-8ba10effb01d" cx="243.6" cy="206.91" r="138.9" gradientTransform="translate(689.6 689.7) rotate(180)" xlink:href="#e018f9a0-b6ab-49e5-b009-9f5baa5c94dc"/><radialGradient id="aa4582e3-47c4-46ee-850e-7497128d4821" cx="222.66" cy="344.92" r="132.42" gradientTransform="translate(689.6 689.7) rotate(180)" xlink:href="#e018f9a0-b6ab-49e5-b009-9f5baa5c94dc"/><radialGradient id="abcc3d52-d566-4f0c-b192-96a2df820810" cx="243.21" cy="482.79" r="139.01" gradientTransform="translate(689.6 689.7) rotate(180)" xlink:href="#e018f9a0-b6ab-49e5-b009-9f5baa5c94dc"/><radialGradient id="b81e1ce8-491a-4f79-9055-a09dfdf48d78" cx="445.96" cy="482.93" r="138.9" gradientTransform="translate(689.6 689.7) rotate(180)" xlink:href="#e018f9a0-b6ab-49e5-b009-9f5baa5c94dc"/><radialGradient id="b38e6d60-86d4-438c-a39e-a531b86bf17a" cx="466.95" cy="344.92" r="132.42" gradientTransform="translate(689.6 689.7) rotate(180)" xlink:href="#e018f9a0-b6ab-49e5-b009-9f5baa5c94dc"/><radialGradient id="bff3c81a-56fa-4ba8-8f74-d00290e40a82" cx="463" cy="206.93" r="130.74" gradientTransform="translate(689.6 689.7) rotate(180)" xlink:href="#e018f9a0-b6ab-49e5-b009-9f5baa5c94dc"/><radialGradient id="bd37f680-4e9f-4b25-9c42-9a0daa593911" cx="345" cy="345" r="236.35" gradientUnits="userSpaceOnUse"><stop offset="0.03" stop-color="#303030"/><stop offset="0.39" stop-color="#292929"/><stop offset="0.89" stop-color="#171717"/><stop offset="1" stop-color="#121212"/></radialGradient><linearGradient id="a240219d-e31e-41a8-931e-301106df769a" x1="395.16" y1="224.21" x2="-176.62" y2="224.21" xlink:href="#bc165e9a-2722-40e7-8496-8b5a5beb1344"/><linearGradient id="b1d1a6b2-776b-46f9-8468-f67f7c412b21" x1="344.25" y1="344.91" x2="-212.16" y2="344.91" xlink:href="#bc165e9a-2722-40e7-8496-8b5a5beb1344"/><linearGradient id="a9a33be4-ca3f-441c-ab5b-5f3b503d4d6e" x1="379.31" y1="465.49" x2="-194.38" y2="465.49" xlink:href="#bc165e9a-2722-40e7-8496-8b5a5beb1344"/><linearGradient id="bfda28dd-46df-4bdf-8705-015c0eeb7574" x1="732.31" y1="465.62" x2="160.54" y2="465.62" xlink:href="#bc165e9a-2722-40e7-8496-8b5a5beb1344"/><linearGradient id="bcb2716a-a78a-4c27-900f-57270021e82c" x1="771.54" y1="344.91" x2="215.13" y2="344.91" xlink:href="#bc165e9a-2722-40e7-8496-8b5a5beb1344"/><linearGradient id="bee1af4a-7989-4f6c-b315-313cbf380f50" x1="725.53" y1="224.23" x2="221.58" y2="224.23" xlink:href="#bc165e9a-2722-40e7-8496-8b5a5beb1344"/></defs><title>JOBS ICON_Mesa de trabajo 1</title><path class="b594973e-2577-4f78-b2ef-cdcac81e58db" d="M391.5,170.1v-.7c0-.9-.1-1.8-.1-2.7a342.1,342.1,0,0,0-40.9-156h-.6a57.9,57.9,0,0,0-10.2,0A50.9,50.9,0,0,0,320,17.1L73.5,159.4a47.9,47.9,0,0,0-15.4,13.9,46,46,0,0,0-5.3,9.1c56.2,91.1,153.8,154,266.6,162.3,8.1.6,17.5.1,25.7.1h0c-.1,0,0,0,0,.1h0c0,.1-.1.2,0,0h0c0,.1-.1.1,0,.1h0c.1.1.1,0,0,0h0a.1.1,0,0,0,.1-.1h0c1.3-2.3,2.9-4.8,4.4-7.4s2.2-3.4,3.2-5.2a86.3,86.3,0,0,0,4.3-7.7h0a342,342,0,0,0,34.4-146.1v-8.2Z"/><path class="e8218d64-6c4f-44c9-9068-2286fbe0be15" d="M216.7,217.3l-.5-.3-2.4-1.3A340.9,340.9,0,0,0,58.2,173.1c-.1.1-.1.1-.1.2l-.3.3a54.1,54.1,0,0,0-5,8.8,49.9,49.9,0,0,0-4.3,20.3V487.3a49.9,49.9,0,0,0,4.3,20.3,46,46,0,0,0,5.3,9.1A342.6,342.6,0,0,0,331.9,367c4.6-6.7,8.9-15.1,13-22.2h0c.1.1.1.2,0,0h.1c0-.1,0-.1-.1-.2h0c.1,0,.1-.1,0,0h0c-1.4-2.3-2.8-4.9-4.2-7.5l-2.9-5.4a74.4,74.4,0,0,0-4.6-7.5h0A341.5,341.5,0,0,0,223.9,221.4l-.4-.2-3.2-1.9H220Z"/><path class="eff46fd9-fc4c-4267-a965-032ac544aeaf" d="M169.8,392.1l-.5.3-2.4,1.4A340.1,340.1,0,0,0,52.3,507.3v.2a.4.4,0,0,0,.1.3,48,48,0,0,0,5.1,8.8A50.1,50.1,0,0,0,73,530.5L319.5,672.8a49.1,49.1,0,0,0,19.8,6.4,46.1,46.1,0,0,0,10.5,0c50.8-94.2,56.5-210.2,7.3-312-3.5-7.3-8.7-15.2-12.8-22.4h.1c0-.1.1-.1-.1,0h-8.7l-6.1-.2c-3.1,0-6.1,0-8.8.2h0A342.2,342.2,0,0,0,176.9,388l-.3.2-3.2,1.8-.3.2Z"/><path class="b3616e0e-06df-4714-afad-44f6daae8279" d="M298.1,519.8v3.3a341.3,341.3,0,0,0,41,156.1h.6a50.9,50.9,0,0,0,29.8-6.5L616,530.5a50.5,50.5,0,0,0,15.5-13.9,51,51,0,0,0,5.2-9.1c-56.1-91.1-153.8-154-266.6-162.3-8-.6-17.5-.2-25.7-.2h0c.1-.1.1-.1.1,0h-.1c0-.1-.1-.2,0,0h0c-.1-.1,0-.1,0,0h0a.3.3,0,0,1-.1.2h0c-1.3,2.3-2.8,4.8-4.4,7.3s-2.2,3.5-3.2,5.3-3,5.2-4.2,7.6h0a339.9,339.9,0,0,0-34.4,146.2v.3c0,1.3-.1,2.5-.1,3.8v.3C298,517.3,298.1,518.5,298.1,519.8Z"/><path class="b07c239e-7670-47d8-a2c2-6087d9048ad0" d="M472.9,472.6l.5.3,2.4,1.3a340.8,340.8,0,0,0,155.6,42.5.1.1,0,0,0,.1-.1l.3-.3a58.7,58.7,0,0,0,5-8.8,49.9,49.9,0,0,0,4.3-20.3V202.5a49.9,49.9,0,0,0-4.3-20.3,49,49,0,0,0-5.3-9.1c-107,3.1-210.2,56.2-273.8,149.7-4.6,6.7-8.9,15.1-13,22.2h0c-.1,0-.1-.1-.1,0h0a.1.1,0,0,0,.1.1h0c-.1,0-.1,0,0-.1s0,.2.1.2h0l4.1,7.5c1,1.8,2,3.6,2.9,5.4s3,5.2,4.6,7.5h0A341.2,341.2,0,0,0,465.7,468.4l.4.2a33.7,33.7,0,0,0,3.2,1.9l.3.2Z"/><path class="b97415b5-e278-46fb-a78c-7e7e2777fb44" d="M636.9,182.4A341.3,341.3,0,0,1,522.2,295.9l-2.3,1.4-.6.3a33.7,33.7,0,0,1-3.2,1.9l-.3.2-3.3,1.8-.3.2A341.7,341.7,0,0,1,368.5,345h-.1c-2.7.2-5.7.2-8.7.2l-6.2-.2h-8.4c.1,0,.1,0,0-.1h.1c1.3-2.3,2.9-4.8,4.5-7.4s2.1-3.4,3.1-5.2a86.3,86.3,0,0,0,4.3-7.7h0a342,342,0,0,0,34.4-146.1v-8.9c0-.9-.1-1.8-.1-2.7a342.1,342.1,0,0,0-40.9-156h-.6a57.9,57.9,0,0,0-10.2,0h-.5v-.2a47,47,0,0,1,10.6,0,49.1,49.1,0,0,1,19.7,6.4L616.1,159.2a49,49,0,0,1,15.4,13.9,48,48,0,0,1,5.1,8.8l.2.3C636.8,182.3,636.8,182.3,636.9,182.4Z"/><path class="b594973e-2577-4f78-b2ef-cdcac81e58db" d="M391.5,170.1v-.7c0-.9-.1-1.8-.1-2.7a342.1,342.1,0,0,0-40.9-156h-.6a57.9,57.9,0,0,0-10.2,0A50.9,50.9,0,0,0,320,17.1L73.5,159.4a47.9,47.9,0,0,0-15.4,13.9,46,46,0,0,0-5.3,9.1c56.2,91.1,153.8,154,266.6,162.3,8.1.6,17.5.1,25.7.1h0c-.1,0,0,0,0,.1h0c0,.1-.1.2,0,0h0c0,.1-.1.1,0,.1h0c.1.1.1,0,0,0h0a.1.1,0,0,0,.1-.1h0c1.3-2.3,2.9-4.8,4.4-7.4s2.2-3.4,3.2-5.2a86.3,86.3,0,0,0,4.3-7.7h0a342,342,0,0,0,34.4-146.1v-8.2Z"/><path class="e8218d64-6c4f-44c9-9068-2286fbe0be15" d="M216.7,217.3l-.5-.3-2.4-1.3A340.9,340.9,0,0,0,58.2,173.1c-.1.1-.1.1-.1.2l-.3.3a54.1,54.1,0,0,0-5,8.8,49.9,49.9,0,0,0-4.3,20.3V487.3a49.9,49.9,0,0,0,4.3,20.3,46,46,0,0,0,5.3,9.1A342.6,342.6,0,0,0,331.9,367c4.6-6.7,8.9-15.1,13-22.2h0c.1.1.1.2,0,0h.1c0-.1,0-.1-.1-.2h0c.1,0,.1-.1,0,0h0c-1.4-2.3-2.8-4.9-4.2-7.5l-2.9-5.4a74.4,74.4,0,0,0-4.6-7.5h0A341.5,341.5,0,0,0,223.9,221.4l-.4-.2-3.2-1.9H220Z"/><path class="eff46fd9-fc4c-4267-a965-032ac544aeaf" d="M169.8,392.1l-.5.3-2.4,1.4A340.1,340.1,0,0,0,52.3,507.3v.2a.4.4,0,0,0,.1.3,48,48,0,0,0,5.1,8.8A50.1,50.1,0,0,0,73,530.5L319.5,672.8a49.1,49.1,0,0,0,19.8,6.4,46.1,46.1,0,0,0,10.5,0c50.8-94.2,56.5-210.2,7.3-312-3.5-7.3-8.7-15.2-12.8-22.4h.1c0-.1.1-.1-.1,0h-8.7l-6.1-.2c-3.1,0-6.1,0-8.8.2h0A342.2,342.2,0,0,0,176.9,388l-.3.2-3.2,1.8-.3.2Z"/><path class="b3616e0e-06df-4714-afad-44f6daae8279" d="M298.1,519.8v3.3a341.3,341.3,0,0,0,41,156.1h.6a50.9,50.9,0,0,0,29.8-6.5L616,530.5a50.5,50.5,0,0,0,15.5-13.9,51,51,0,0,0,5.2-9.1c-56.1-91.1-153.8-154-266.6-162.3-8-.6-17.5-.2-25.7-.2h0c.1-.1.1-.1.1,0h-.1c0-.1-.1-.2,0,0h0c-.1-.1,0-.1,0,0h0a.3.3,0,0,1-.1.2h0c-1.3,2.3-2.8,4.8-4.4,7.3s-2.2,3.5-3.2,5.3-3,5.2-4.2,7.6h0a339.9,339.9,0,0,0-34.4,146.2v.3c0,1.3-.1,2.5-.1,3.8v.3C298,517.3,298.1,518.5,298.1,519.8Z"/><path class="b07c239e-7670-47d8-a2c2-6087d9048ad0" d="M472.9,472.6l.5.3,2.4,1.3a340.8,340.8,0,0,0,155.6,42.5.1.1,0,0,0,.1-.1l.3-.3a58.7,58.7,0,0,0,5-8.8,49.9,49.9,0,0,0,4.3-20.3V202.5a49.9,49.9,0,0,0-4.3-20.3,49,49,0,0,0-5.3-9.1c-107,3.1-210.2,56.2-273.8,149.7-4.6,6.7-8.9,15.1-13,22.2h0c-.1,0-.1-.1-.1,0h0a.1.1,0,0,0,.1.1h0c-.1,0-.1,0,0-.1s0,.2.1.2h0l4.1,7.5c1,1.8,2,3.6,2.9,5.4s3,5.2,4.6,7.5h0A341.2,341.2,0,0,0,465.7,468.4l.4.2a33.7,33.7,0,0,0,3.2,1.9l.3.2Z"/><path class="b97415b5-e278-46fb-a78c-7e7e2777fb44" d="M636.9,182.4A341.3,341.3,0,0,1,522.2,295.9l-2.3,1.4-.6.3a33.7,33.7,0,0,1-3.2,1.9l-.3.2-3.3,1.8-.3.2A341.7,341.7,0,0,1,368.5,345h-.1c-2.7.2-5.7.2-8.7.2l-6.2-.2h-8.4c.1,0,.1,0,0-.1h.1c1.3-2.3,2.9-4.8,4.5-7.4s2.1-3.4,3.1-5.2a86.3,86.3,0,0,0,4.3-7.7h0a342,342,0,0,0,34.4-146.1v-8.9c0-.9-.1-1.8-.1-2.7a342.1,342.1,0,0,0-40.9-156h-.6a57.9,57.9,0,0,0-10.2,0h-.5v-.2a47,47,0,0,1,10.6,0,49.1,49.1,0,0,1,19.7,6.4L616.1,159.2a49,49,0,0,1,15.4,13.9,48,48,0,0,1,5.1,8.8l.2.3C636.8,182.3,636.8,182.3,636.9,182.4Z"/><g class="ba8fc8e8-72e6-4a77-8b8e-1182b9633ce8"><path class="e3a1f6df-8079-4737-9b8c-7ba1b35dbe79" d="M391.5,170.1v-.7c0-.9-.1-1.8-.1-2.7a342.1,342.1,0,0,0-40.9-156h-.6a57.9,57.9,0,0,0-10.2,0A50.9,50.9,0,0,0,320,17.1L73.5,159.4a47.9,47.9,0,0,0-15.4,13.9,46,46,0,0,0-5.3,9.1c56.2,91.1,153.8,154,266.6,162.3,8.1.6,17.5.1,25.7.1h0c-.1,0,0,0,0,.1h0c0,.1-.1.2,0,0h0c0,.1-.1.1,0,.1h0c.1.1.1,0,0,0h0a.1.1,0,0,0,.1-.1h0c1.3-2.3,2.9-4.8,4.4-7.4s2.2-3.4,3.2-5.2a86.3,86.3,0,0,0,4.3-7.7h0a342,342,0,0,0,34.4-146.1v-8.2Z"/><path class="ae36e2de-c0f3-4654-9319-86dc24efe7f1" d="M216.7,217.3l-.5-.3-2.4-1.3A340.9,340.9,0,0,0,58.2,173.1c-.1.1-.1.1-.1.2l-.3.3a54.1,54.1,0,0,0-5,8.8,49.9,49.9,0,0,0-4.3,20.3V487.3a49.9,49.9,0,0,0,4.3,20.3,46,46,0,0,0,5.3,9.1A342.6,342.6,0,0,0,331.9,367c4.6-6.7,8.9-15.1,13-22.2h0c.1.1.1.2,0,0h.1c0-.1,0-.1-.1-.2h0c.1,0,.1-.1,0,0h0c-1.4-2.3-2.8-4.9-4.2-7.5l-2.9-5.4a74.4,74.4,0,0,0-4.6-7.5h0A341.5,341.5,0,0,0,223.9,221.4l-.4-.2-3.2-1.9H220Z"/><path class="bb19a6e4-ffed-4e45-a1e6-f48415feaa8b" d="M169.8,392.1l-.5.3-2.4,1.4A340.1,340.1,0,0,0,52.3,507.3v.2a.4.4,0,0,0,.1.3,48,48,0,0,0,5.1,8.8A50.1,50.1,0,0,0,73,530.5L319.5,672.8a49.1,49.1,0,0,0,19.8,6.4,46.1,46.1,0,0,0,10.5,0c50.8-94.2,56.5-210.2,7.3-312-3.5-7.3-8.7-15.2-12.8-22.4h.1c0-.1.1-.1-.1,0h-8.7l-6.1-.2c-3.1,0-6.1,0-8.8.2h0A342.2,342.2,0,0,0,176.9,388l-.3.2-3.2,1.8-.3.2Z"/><path class="a843cddb-5585-4ba5-80e5-a42fdb2b7d21" d="M298.1,519.8v3.3a341.3,341.3,0,0,0,41,156.1h.6a50.9,50.9,0,0,0,29.8-6.5L616,530.5a50.5,50.5,0,0,0,15.5-13.9,51,51,0,0,0,5.2-9.1c-56.1-91.1-153.8-154-266.6-162.3-8-.6-17.5-.2-25.7-.2h0c.1-.1.1-.1.1,0h-.1c0-.1-.1-.2,0,0h0c-.1-.1,0-.1,0,0h0a.3.3,0,0,1-.1.2h0c-1.3,2.3-2.8,4.8-4.4,7.3s-2.2,3.5-3.2,5.3-3,5.2-4.2,7.6h0a339.9,339.9,0,0,0-34.4,146.2v.3c0,1.3-.1,2.5-.1,3.8v.3C298,517.3,298.1,518.5,298.1,519.8Z"/><path class="e74554b7-4f8e-451f-9c20-77b832ee3183" d="M472.9,472.6l.5.3,2.4,1.3a340.8,340.8,0,0,0,155.6,42.5.1.1,0,0,0,.1-.1l.3-.3a58.7,58.7,0,0,0,5-8.8,49.9,49.9,0,0,0,4.3-20.3V202.5a49.9,49.9,0,0,0-4.3-20.3,49,49,0,0,0-5.3-9.1c-107,3.1-210.2,56.2-273.8,149.7-4.6,6.7-8.9,15.1-13,22.2h0c-.1,0-.1-.1-.1,0h0a.1.1,0,0,0,.1.1h0c-.1,0-.1,0,0-.1s0,.2.1.2h0l4.1,7.5c1,1.8,2,3.6,2.9,5.4s3,5.2,4.6,7.5h0A341.2,341.2,0,0,0,465.7,468.4l.4.2a33.7,33.7,0,0,0,3.2,1.9l.3.2Z"/><path class="fd6e0e08-4cfb-4ec6-bab1-0fbeaf6326d1" d="M636.9,182.4A341.3,341.3,0,0,1,522.2,295.9l-2.3,1.4-.6.3a33.7,33.7,0,0,1-3.2,1.9l-.3.2-3.3,1.8-.3.2A341.7,341.7,0,0,1,368.5,345h-.1c-2.7.2-5.7.2-8.7.2l-6.2-.2h-8.4c.1,0,.1,0,0-.1h.1c1.3-2.3,2.9-4.8,4.5-7.4s2.1-3.4,3.1-5.2a86.3,86.3,0,0,0,4.3-7.7h0a342,342,0,0,0,34.4-146.1v-8.9c0-.9-.1-1.8-.1-2.7a342.1,342.1,0,0,0-40.9-156h-.6a57.9,57.9,0,0,0-10.2,0h-.5v-.2a47,47,0,0,1,10.6,0,49.1,49.1,0,0,1,19.7,6.4L616.1,159.2a49,49,0,0,1,15.4,13.9,48,48,0,0,1,5.1,8.8l.2.3C636.8,182.3,636.8,182.3,636.9,182.4Z"/></g><path class="b594973e-2577-4f78-b2ef-cdcac81e58db" d="M391.5,170.1v-.7c0-.9-.1-1.8-.1-2.7a342.1,342.1,0,0,0-40.9-156h-.6a57.9,57.9,0,0,0-10.2,0A50.9,50.9,0,0,0,320,17.1L73.5,159.4a47.9,47.9,0,0,0-15.4,13.9,46,46,0,0,0-5.3,9.1c56.2,91.1,153.8,154,266.6,162.3,8.1.6,17.5.1,25.7.1h0c-.1,0,0,0,0,.1h0c0,.1-.1.2,0,0h0c0,.1-.1.1,0,.1h0c.1.1.1,0,0,0h0a.1.1,0,0,0,.1-.1h0c1.3-2.3,2.9-4.8,4.4-7.4s2.2-3.4,3.2-5.2a86.3,86.3,0,0,0,4.3-7.7h0a342,342,0,0,0,34.4-146.1v-8.2Z"/><path class="e8218d64-6c4f-44c9-9068-2286fbe0be15" d="M216.7,217.3l-.5-.3-2.4-1.3A340.9,340.9,0,0,0,58.2,173.1c-.1.1-.1.1-.1.2l-.3.3a54.1,54.1,0,0,0-5,8.8,49.9,49.9,0,0,0-4.3,20.3V487.3a49.9,49.9,0,0,0,4.3,20.3,46,46,0,0,0,5.3,9.1A342.6,342.6,0,0,0,331.9,367c4.6-6.7,8.9-15.1,13-22.2h0c.1.1.1.2,0,0h.1c0-.1,0-.1-.1-.2h0c.1,0,.1-.1,0,0h0c-1.4-2.3-2.8-4.9-4.2-7.5l-2.9-5.4a74.4,74.4,0,0,0-4.6-7.5h0A341.5,341.5,0,0,0,223.9,221.4l-.4-.2-3.2-1.9H220Z"/><path class="eff46fd9-fc4c-4267-a965-032ac544aeaf" d="M169.8,392.1l-.5.3-2.4,1.4A340.1,340.1,0,0,0,52.3,507.3v.2a.4.4,0,0,0,.1.3,48,48,0,0,0,5.1,8.8A50.1,50.1,0,0,0,73,530.5L319.5,672.8a49.1,49.1,0,0,0,19.8,6.4,46.1,46.1,0,0,0,10.5,0c50.8-94.2,56.5-210.2,7.3-312-3.5-7.3-8.7-15.2-12.8-22.4h.1c0-.1.1-.1-.1,0h-8.7l-6.1-.2c-3.1,0-6.1,0-8.8.2h0A342.2,342.2,0,0,0,176.9,388l-.3.2-3.2,1.8-.3.2Z"/><path class="b3616e0e-06df-4714-afad-44f6daae8279" d="M298.1,519.8v3.3a341.3,341.3,0,0,0,41,156.1h.6a50.9,50.9,0,0,0,29.8-6.5L616,530.5a50.5,50.5,0,0,0,15.5-13.9,51,51,0,0,0,5.2-9.1c-56.1-91.1-153.8-154-266.6-162.3-8-.6-17.5-.2-25.7-.2h0c.1-.1.1-.1.1,0h-.1c0-.1-.1-.2,0,0h0c-.1-.1,0-.1,0,0h0a.3.3,0,0,1-.1.2h0c-1.3,2.3-2.8,4.8-4.4,7.3s-2.2,3.5-3.2,5.3-3,5.2-4.2,7.6h0a339.9,339.9,0,0,0-34.4,146.2v.3c0,1.3-.1,2.5-.1,3.8v.3C298,517.3,298.1,518.5,298.1,519.8Z"/><path class="b07c239e-7670-47d8-a2c2-6087d9048ad0" d="M472.9,472.6l.5.3,2.4,1.3a340.8,340.8,0,0,0,155.6,42.5.1.1,0,0,0,.1-.1l.3-.3a58.7,58.7,0,0,0,5-8.8,49.9,49.9,0,0,0,4.3-20.3V202.5a49.9,49.9,0,0,0-4.3-20.3,49,49,0,0,0-5.3-9.1c-107,3.1-210.2,56.2-273.8,149.7-4.6,6.7-8.9,15.1-13,22.2h0c-.1,0-.1-.1-.1,0h0a.1.1,0,0,0,.1.1h0c-.1,0-.1,0,0-.1s0,.2.1.2h0l4.1,7.5c1,1.8,2,3.6,2.9,5.4s3,5.2,4.6,7.5h0A341.2,341.2,0,0,0,465.7,468.4l.4.2a33.7,33.7,0,0,0,3.2,1.9l.3.2Z"/><path class="b97415b5-e278-46fb-a78c-7e7e2777fb44" d="M636.9,182.4A341.3,341.3,0,0,1,522.2,295.9l-2.3,1.4-.6.3a33.7,33.7,0,0,1-3.2,1.9l-.3.2-3.3,1.8-.3.2A341.7,341.7,0,0,1,368.5,345h-.1c-2.7.2-5.7.2-8.7.2l-6.2-.2h-8.4c.1,0,.1,0,0-.1h.1c1.3-2.3,2.9-4.8,4.5-7.4s2.1-3.4,3.1-5.2a86.3,86.3,0,0,0,4.3-7.7h0a342,342,0,0,0,34.4-146.1v-8.9c0-.9-.1-1.8-.1-2.7a342.1,342.1,0,0,0-40.9-156h-.6a57.9,57.9,0,0,0-10.2,0h-.5v-.2a47,47,0,0,1,10.6,0,49.1,49.1,0,0,1,19.7,6.4L616.1,159.2a49,49,0,0,1,15.4,13.9,48,48,0,0,1,5.1,8.8l.2.3C636.8,182.3,636.8,182.3,636.9,182.4Z"/><path class="ac6d6b34-8575-4ac8-a1ab-f4de6c233287" d="M306.3,489.1v2.7a282.3,282.3,0,0,0,33.8,128.8c.1,0,.2.1.2,0h.3a42.4,42.4,0,0,0,24.7-5.4L568.7,497.9a39.8,39.8,0,0,0,12.7-11.4,38.1,38.1,0,0,0,4.3-7.6A282.9,282.9,0,0,0,365.8,345c-6.7-.5-14.5-.1-21.3-.1h0c.1-.1.1-.2,0,0h.1c0,.1,0,.1-.1.2h0s-.1-.1,0,.1h0l-3.7,6.1c-.9,1.4-1.8,2.8-2.6,4.3s-2.5,4.3-3.5,6.3h0a281.9,281.9,0,0,0-28.4,120.6v6.8Z"/><path class="e1c3678f-7fe8-4869-9594-ab0ddd607765" d="M450.5,450.1l.4.3,2,1.1a282,282,0,0,0,128.4,35.1c.1-.1.1-.1.1-.2s.1-.1.2-.2a42.7,42.7,0,0,0,7.7-24V227.3a41.4,41.4,0,0,0-3.5-16.8,47.4,47.4,0,0,0-4.4-7.5,283.1,283.1,0,0,0-226,123.6c-3.7,5.5-7.3,12.4-10.7,18.3h0c-.1-.1-.1-.2,0,0h.1c1.1,1.9,2.2,4,3.4,6.2l2.4,4.5a70.7,70.7,0,0,0,3.8,6.1h0a281.3,281.3,0,0,0,90.2,84.8l.3.2,2.6,1.5.3.2Z"/><path class="f84de23f-4bff-4f52-9cf0-bf1738519df3" d="M489.2,305.9l.5-.3,1.9-1.1a282.7,282.7,0,0,0,94.6-93.7c0-.1,0-.1-.1-.2v-.2a40.4,40.4,0,0,0-16.9-18.7L365.7,74.2a41.3,41.3,0,0,0-25-5.3,282.8,282.8,0,0,0-6,257.5c2.9,6,7.1,12.6,10.5,18.5h0c-.1-.1,0-.1,0,0h12.3c2.5.1,4.9,0,7.2-.1h0a281.9,281.9,0,0,0,118.6-35.7l.3-.2,2.7-1.5h.2Z"/><path class="b624eb8c-3350-4fd8-947d-e1c04f8cba45" d="M383.4,200.5V200c0-.8-.1-1.5-.1-2.2A281,281,0,0,0,349.5,69H349a46,46,0,0,0-8.3,0,41.7,41.7,0,0,0-16.3,5.3L121,191.7a39.8,39.8,0,0,0-12.7,11.4,38.5,38.5,0,0,0-4.4,7.6,283.3,283.3,0,0,0,220,133.9c6.7.5,14.4.1,21.2.1h0c0,.1-.1.2,0,0h.1l3.7-6.1,2.6-4.3c1.3-2.1,2.5-4.3,3.5-6.3h0a281.9,281.9,0,0,0,28.4-120.6v-6.8Z"/><path class="ffd1aa06-abb8-4fb2-8ed3-322faf8e92dd" d="M239.1,239.5l-.4-.3-2-1.1A282,282,0,0,0,108.3,203v.2c-.1,0-.1.1-.2.2a42.7,42.7,0,0,0-7.7,24V462.3a41.9,41.9,0,0,0,7.9,24.3A283.1,283.1,0,0,0,334.2,363c3.7-5.5,7.3-12.4,10.7-18.3h0c0,.1.1.1,0,.1h.1a.1.1,0,0,1-.1-.1h-.1c-1.1-1.9-2.2-4-3.4-6.2L339,334c-1.2-2.2-2.5-4.4-3.7-6.2h0A282.7,282.7,0,0,0,245,242.9l-.3-.2-2.6-1.5-.2-.2Z"/><path class="a57c6daf-40b4-4f4d-83f5-deeb1c9c75bb" d="M103.8,478.9a282.7,282.7,0,0,1,94.6-93.7,11.8,11.8,0,0,0,1.9-1.1l.5-.3,2.7-1.5.2-.2,2.7-1.5.3-.2a281.9,281.9,0,0,1,118.6-35.7h19.2l-3.7,6.1c-.9,1.4-1.8,2.8-2.6,4.3s-2.5,4.3-3.5,6.3h0a281.9,281.9,0,0,0-28.4,120.6v9.5a282.3,282.3,0,0,0,33.8,128.8c.1,0,.2.1.2,0h.3a39.3,39.3,0,0,0,8.4-.1h.4c0,.1-.1.1-.1.2a41.3,41.3,0,0,1-25-5.3L120.9,498a40.9,40.9,0,0,1-12.7-11.4,43.6,43.6,0,0,1-4.2-7.2.4.4,0,0,1-.1-.3C103.8,479,103.8,479,103.8,478.9Z"/><g class="ba8fc8e8-72e6-4a77-8b8e-1182b9633ce8"><path class="ae8289d0-205f-494a-b614-b7489a415c46" d="M306.3,489.1v2.7a282.3,282.3,0,0,0,33.8,128.8c.1,0,.2.1.2,0h.3a42.4,42.4,0,0,0,24.7-5.4L568.7,497.9a39.8,39.8,0,0,0,12.7-11.4,38.1,38.1,0,0,0,4.3-7.6A282.9,282.9,0,0,0,365.8,345c-6.7-.5-14.5-.1-21.3-.1h0c.1-.1.1-.2,0,0h.1c0,.1,0,.1-.1.2h0s-.1-.1,0,.1h0l-3.7,6.1c-.9,1.4-1.8,2.8-2.6,4.3s-2.5,4.3-3.5,6.3h0a281.9,281.9,0,0,0-28.4,120.6v6.8Z"/><path class="a899ff64-07a0-4641-8a1c-ec232544a2bb" d="M450.5,450.1l.4.3,2,1.1a282,282,0,0,0,128.4,35.1c.1-.1.1-.1.1-.2s.1-.1.2-.2a42.7,42.7,0,0,0,7.7-24V227.3a41.4,41.4,0,0,0-3.5-16.8,47.4,47.4,0,0,0-4.4-7.5,283.1,283.1,0,0,0-226,123.6c-3.7,5.5-7.3,12.4-10.7,18.3h0c-.1-.1-.1-.2,0,0h.1c1.1,1.9,2.2,4,3.4,6.2l2.4,4.5a70.7,70.7,0,0,0,3.8,6.1h0a281.3,281.3,0,0,0,90.2,84.8l.3.2,2.6,1.5.3.2Z"/><path class="a0f73c77-458e-43f8-9eea-b4c3e05e02c5" d="M489.2,305.9l.5-.3,1.9-1.1a282.7,282.7,0,0,0,94.6-93.7c0-.1,0-.1-.1-.2v-.2a40.4,40.4,0,0,0-16.9-18.7L365.7,74.2a41.3,41.3,0,0,0-25-5.3,282.8,282.8,0,0,0-6,257.5c2.9,6,7.1,12.6,10.5,18.5h0c-.1-.1,0-.1,0,0h12.3c2.5.1,4.9,0,7.2-.1h0a281.9,281.9,0,0,0,118.6-35.7l.3-.2,2.7-1.5h.2Z"/><path class="e49cfcba-37ae-4d03-9230-0212627f402a" d="M383.4,200.5V200c0-.8-.1-1.5-.1-2.2A281,281,0,0,0,349.5,69H349a46,46,0,0,0-8.3,0,41.7,41.7,0,0,0-16.3,5.3L121,191.7a39.8,39.8,0,0,0-12.7,11.4,38.5,38.5,0,0,0-4.4,7.6,283.3,283.3,0,0,0,220,133.9c6.7.5,14.4.1,21.2.1h0c0,.1-.1.2,0,0h.1l3.7-6.1,2.6-4.3c1.3-2.1,2.5-4.3,3.5-6.3h0a281.9,281.9,0,0,0,28.4-120.6v-6.8Z"/><path class="ed528378-4404-4351-b835-f93690002a32" d="M239.1,239.5l-.4-.3-2-1.1A282,282,0,0,0,108.3,203v.2c-.1,0-.1.1-.2.2a42.7,42.7,0,0,0-7.7,24V462.3a41.9,41.9,0,0,0,7.9,24.3A283.1,283.1,0,0,0,334.2,363c3.7-5.5,7.3-12.4,10.7-18.3h0c0,.1.1.1,0,.1h.1a.1.1,0,0,1-.1-.1h-.1c-1.1-1.9-2.2-4-3.4-6.2L339,334c-1.2-2.2-2.5-4.4-3.7-6.2h0A282.7,282.7,0,0,0,245,242.9l-.3-.2-2.6-1.5-.2-.2Z"/><path class="ae21cfbb-5d5c-4ca6-8064-55c4a6ac0c99" d="M103.8,478.9a282.7,282.7,0,0,1,94.6-93.7,11.8,11.8,0,0,0,1.9-1.1l.5-.3,2.7-1.5.2-.2,2.7-1.5.3-.2a281.9,281.9,0,0,1,118.6-35.7h19.2l-3.7,6.1c-.9,1.4-1.8,2.8-2.6,4.3s-2.5,4.3-3.5,6.3h0a281.9,281.9,0,0,0-28.4,120.6v9.5a282.3,282.3,0,0,0,33.8,128.8c.1,0,.2.1.2,0h.3a39.3,39.3,0,0,0,8.4-.1h.4c0,.1-.1.1-.1.2a41.3,41.3,0,0,1-25-5.3L120.9,498a40.9,40.9,0,0,1-12.7-11.4,43.6,43.6,0,0,1-4.2-7.2.4.4,0,0,1-.1-.3C103.8,479,103.8,479,103.8,478.9Z"/></g><path class="b6ceaf33-5d8b-4443-ae53-14b80c20d46d" d="M567.2,447.6V242.4a44.6,44.6,0,0,0-22.3-38.6L367.3,101.3a44.4,44.4,0,0,0-44.6,0L145.1,203.8a44.6,44.6,0,0,0-22.3,38.6V447.6a44.6,44.6,0,0,0,22.3,38.6L322.7,588.7a44.4,44.4,0,0,0,44.6,0L544.9,486.2A44.6,44.6,0,0,0,567.2,447.6Z"/><path class="b1f077c1-79c4-4ac2-997b-c4be7128a769" d="M378.5,218.7v-2.4a245.9,245.9,0,0,0-29.6-112.6h-.4a36.6,36.6,0,0,0-7.4.1,35.4,35.4,0,0,0-14.2,4.6L149,211a36.8,36.8,0,0,0-11.1,10,36.4,36.4,0,0,0-3.8,6.6A247.3,247.3,0,0,0,326.5,344.7c5.8.5,12.6.1,18.5.2h0c.1,0,.1.1,0,0h0c.1.1.1,0,0,0h0c.1-.1.1-.1.1-.2h0l3.2-5.4,2.3-3.7c1.1-1.9,2.2-3.8,3.1-5.6h0a246.9,246.9,0,0,0,24.8-105.5v-5.9Z"/><path class="f78eaf7e-d0d3-42c6-8cf7-882b6be2b138" d="M252.4,252.8l-.4-.2-1.7-1A246.3,246.3,0,0,0,138,220.9h-.1l-.2.3a35.5,35.5,0,0,0-3.6,6.3,36.2,36.2,0,0,0-3.1,14.7V447.7a36.2,36.2,0,0,0,6.9,21.2A247.4,247.4,0,0,0,335.5,360.8c3.3-4.8,6.4-10.8,9.4-16h-.1l-3-5.4-2.1-3.9a55,55,0,0,0-3.2-5.4h-.1a244.4,244.4,0,0,0-78.9-74.2l-.2-.2-2.3-1.3h-.2Z"/><path class="a57dc85d-da04-4a16-9b6a-fcf782886ab8" d="M218.5,378.9l-.4.3-1.7,1a246.4,246.4,0,0,0-82.7,81.9h.1a.4.4,0,0,0,.1.3,39.4,39.4,0,0,0,3.6,6.3,35.9,35.9,0,0,0,11.2,10L326.6,581.5a36.7,36.7,0,0,0,14.2,4.7,48.2,48.2,0,0,0,7.6,0A247.4,247.4,0,0,0,353.7,361c-2.6-5.3-6.3-11-9.2-16.2h-.1c-2,.1-4.1,0-6.2-.1H327.4A245.4,245.4,0,0,0,223.7,376h-.3l-2.3,1.3-.2.2Z"/><path class="e0cdd9be-f54f-4148-89ec-bea59ae68202" d="M311.1,471.1v2.4a245.9,245.9,0,0,0,29.6,112.6.1.1,0,0,0,.1.1h.3a44.5,44.5,0,0,0,7.3,0,37.7,37.7,0,0,0,14.3-4.7L540.6,478.8a35.5,35.5,0,0,0,11.1-10,33.3,33.3,0,0,0,3.8-6.6A247.7,247.7,0,0,0,363.1,345.1c-5.8-.4-12.6-.1-18.6-.1h.1a.1.1,0,0,0-.1.1h0c0-.1-.1-.2,0,0h0l-3.2,5.3c-.8,1.2-1.6,2.5-2.3,3.8a62.6,62.6,0,0,0-3.1,5.5h0a246.9,246.9,0,0,0-24.8,105.5v5.9Z"/><path class="a51da5f8-dbe7-4ec4-9801-09be74e3740c" d="M437.2,437l.4.2,1.7,1a246.7,246.7,0,0,0,112.4,30.7h0l.2-.2a40.3,40.3,0,0,0,3.6-6.4,34.5,34.5,0,0,0,3.1-14.6V242.1a33,33,0,0,0-3.1-14.6,36.4,36.4,0,0,0-3.8-6.6A247.4,247.4,0,0,0,354.1,329c-3.3,4.8-6.4,10.8-9.4,16h0c0-.1-.1-.2,0,0h-.1c.1,0,.1,0,.1.1h.1l3,5.4,2.1,3.9c1.1,1.9,2.2,3.8,3.3,5.4h0A245.4,245.4,0,0,0,432.1,434l.2.2,2.3,1.4h.2Z"/><path class="a534d13c-6abe-4a5d-a5e1-9f8d5bbdc79b" d="M555.6,227.6a245.8,245.8,0,0,1-82.8,81.9l-1.6,1-.4.3-2.4,1.4h-.2l-2.4,1.3h-.2A245.4,245.4,0,0,1,361.9,345H345.1l3.2-5.3,2.3-3.7c1.1-1.9,2.2-3.8,3.1-5.6h0a246.9,246.9,0,0,0,24.8-105.5v-8.3a245.9,245.9,0,0,0-29.6-112.6h-.4a36.6,36.6,0,0,0-7.4.1h-.3a.1.1,0,0,1,.1-.1,32.2,32.2,0,0,1,7.6,0,34.9,34.9,0,0,1,14.2,4.6L540.6,210.9a36.8,36.8,0,0,1,11.1,10,33.5,33.5,0,0,1,3.7,6.3.4.4,0,0,1,.1.3Z"/><path class="a7a1b9cc-72de-4ef4-93a5-e1e34e953f8f" d="M443.4,206.8v198q0,49.3-26,75.2c-17.3,17.2-41.5,25.7-72.8,25.6q-50.7,0-80-27.9c-19.5-18.7-29.5-45.9-29.5-81.5h79.8q0,36.6,26,36.6c14.5,0,21.8-9.3,21.8-28v-198Z"/><polygon class="a9c7e808-fe80-490e-a6ea-93f87e26e6fe" points="316 206.8 235.1 287.7 235.1 206.8 316 206.8"/></svg>