<svg id="a6d859f3-e15e-493c-a633-ccec8e589cfa" data-name="Capa 1" xmlns="http://www.w3.org/2000/svg" viewBox="0 0 779.1 217.8"><defs><style>.e5e1e945-74f4-4413-965d-4feaf1045e02{fill:#fff;}.a6109538-a4d9-4985-b838-5f956bb046c5{fill:#00baff;}</style></defs><title>nodejobslogo</title><path class="e5e1e945-74f4-4413-965d-4feaf1045e02" d="M151.8,3.3v141q0,36-18.9,54.8T79.8,217.8c-24.6,0-44.1-6.8-58.3-20.4S0,164,0,138H58.2q0,26.7,18.9,26.7,15.9,0,15.9-20.4V3.3Z"/><path class="e5e1e945-74f4-4413-965d-4feaf1045e02" d="M340.3,14a101.7,101.7,0,0,1,39,38.8q14.3,24.9,14.3,56.1T379.2,165A103.1,103.1,0,0,1,340,203.9q-24.7,13.9-54.4,13.9A109.8,109.8,0,0,1,231,203.9,102.7,102.7,0,0,1,191.7,165q-14.4-24.9-14.4-56.1t14.4-56.1A102.4,102.4,0,0,1,231,14a113.7,113.7,0,0,1,109.3,0ZM250.2,69.2c-8.6,9.7-12.9,22.9-12.9,39.7s4.3,29.5,12.9,39.3,20.4,14.7,35.4,14.7,26.5-4.9,35.1-14.7,12.9-22.9,12.9-39.3-4.3-30-12.8-39.7-20.2-14.6-35.2-14.6S258.8,59.5,250.2,69.2Z"/><path class="e5e1e945-74f4-4413-965d-4feaf1045e02" d="M584.8,125.1a51.9,51.9,0,0,1,11,32.7q0,27.6-18.3,42.8T525,215.7H420V3.3H522.6q32.1,0,50.2,14.1c12.1,9.4,18.2,23,18.2,40.8,0,12.6-3.3,23.2-9.9,31.7A45.4,45.4,0,0,1,555,106.5C567.6,109.5,577.5,115.7,584.8,125.1ZM479.1,88.2h29.7q22.2,0,22.2-18.6T508.5,50.4H479.1Zm56.4,60.9q0-19.8-23.1-19.8H479.1v39h33.3Q535.5,168.3,535.5,149.1Z"/><path class="e5e1e945-74f4-4413-965d-4feaf1045e02" d="M770.1,186.6q-9,14.4-26.4,22.8T702,217.8q-36.9,0-60.8-17.7t-25.9-50.4H678q.9,11.1,6.9,16.5a21.2,21.2,0,0,0,14.7,5.4c5.2,0,9.2-1.3,12.1-3.9s4.4-6.3,4.4-11.1c0-6.4-2.9-11.3-8.7-14.8s-15-7.4-27.6-11.6a268.1,268.1,0,0,1-33.2-13.5,62.1,62.1,0,0,1-22.5-19.8c-6.3-8.8-9.4-20.1-9.4-33.9s3.4-24.5,10.2-34S641,12.3,652.8,7.4,678,0,693,0q36.6,0,58.3,17.3t23.9,48.4H711.9c-.8-6.6-2.9-11.5-6.2-14.7s-7.6-4.8-13-4.8-8.2,1.2-10.8,3.6-3.9,6-3.9,10.8,2.8,10.7,8.5,14.1,14.7,7.2,26.9,11.4a269,269,0,0,1,33.3,14.1,65.9,65.9,0,0,1,22.8,20.1q9.6,13.2,9.6,34.2A59.3,59.3,0,0,1,770.1,186.6Z"/><path d="M87.2,135.9"/><polygon class="a6109538-a4d9-4985-b838-5f956bb046c5" points="59 3.3 0 62.3 0 3.3 59 3.3"/></svg>