<?xml version="1.0" standalone="no"?>
<!DOCTYPE svg PUBLIC "-//W3C//DTD SVG 20010904//EN"
 "http://www.w3.org/TR/2001/REC-SVG-20010904/DTD/svg10.dtd">
<svg version="1.0" xmlns="http://www.w3.org/2000/svg"
 width="700.000000pt" height="700.000000pt" viewBox="0 0 700.000000 700.000000"
 preserveAspectRatio="xMidYMid meet">
<metadata>
Created by potrace 1.11, written by Peter Selinger 2001-2013
</metadata>
<g transform="translate(0.000000,700.000000) scale(0.100000,-0.100000)"
fill="#000000" stroke="none">
<path d="M3405 6889 c-74 -17 -149 -53 -325 -155 -227 -131 -1076 -621 -1735
-1001 -286 -165 -553 -320 -594 -344 -84 -50 -170 -139 -206 -213 -58 -120
-56 -35 -53 -1702 l3 -1529 24 -65 c28 -76 78 -150 135 -201 42 -37 112 -79
1126 -664 322 -185 684 -395 805 -465 737 -427 715 -415 822 -437 63 -13 88
-13 147 -4 125 20 93 4 761 391 193 111 370 214 395 228 67 37 1099 633 1366
788 295 171 346 219 406 384 l23 65 2 1510 c3 1662 6 1571 -59 1704 -53 109
-124 169 -363 306 -116 66 -219 125 -230 131 -11 6 -166 96 -345 199 -179 103
-341 197 -360 208 -32 18 -298 171 -655 377 -609 352 -790 453 -839 471 -66
23 -192 32 -251 18z"/>
</g>
</svg>
